<svg width="50" height="50" viewBox="0 0 50 50" fill="none" xmlns="http://www.w3.org/2000/svg">
<path fill-rule="evenodd" clip-rule="evenodd" d="M37.5 25C37.5 25.4144 37.3354 25.8118 37.0423 26.1048C36.7493 26.3979 36.3519 26.5625 35.9375 26.5625H17.8344L24.5437 33.2687C24.689 33.414 24.8042 33.5865 24.8829 33.7763C24.9615 33.9661 25.002 34.1695 25.002 34.375C25.002 34.5804 24.9615 34.7839 24.8829 34.9737C24.8042 35.1635 24.689 35.336 24.5437 35.4812C24.3985 35.6265 24.226 35.7418 24.0362 35.8204C23.8464 35.899 23.6429 35.9395 23.4375 35.9395C23.232 35.9395 23.0286 35.899 22.8388 35.8204C22.649 35.7418 22.4765 35.6265 22.3312 35.4812L12.9562 26.1062C12.8107 25.9611 12.6953 25.7887 12.6165 25.5988C12.5377 25.409 12.4972 25.2055 12.4972 25C12.4972 24.7945 12.5377 24.591 12.6165 24.4011C12.6953 24.2113 12.8107 24.0389 12.9562 23.8937L22.3312 14.5187C22.6246 14.2253 23.0226 14.0605 23.4375 14.0605C23.8524 14.0605 24.2503 14.2253 24.5437 14.5187C24.8371 14.8121 25.002 15.2101 25.002 15.625C25.002 16.0399 24.8371 16.4378 24.5437 16.7312L17.8344 23.4375H35.9375C36.3519 23.4375 36.7493 23.6021 37.0423 23.8951C37.3354 24.1882 37.5 24.5856 37.5 25Z" fill="#606060"/>
</svg>
