<svg width="157" height="50" viewBox="0 0 157 50" fill="none" xmlns="http://www.w3.org/2000/svg">
<path opacity="0.3" d="M25 5C35.2771 5 43.7657 12.4071 45 22H34.7733C33.6398 17.7986 29.6851 14.7143 25 14.7143C20.3149 14.7143 16.3602 17.7986 15.2519 22H5C6.23426 12.4071 14.7229 5 25 5Z" fill="#FF1B1B"/>
<path d="M25 0C11.2 0 0 11.2 0 25C0 38.8 11.2 50 25 50C38.8 50 50 38.8 50 25C50 11.2 38.8 0 25 0ZM25 5C35.2 5 43.625 12.625 44.85 22.5H34.7C33.575 18.175 29.65 15 25 15C20.35 15 16.425 18.175 15.325 22.5H5.15C6.375 12.625 14.8 5 25 5ZM30 25C30 27.75 27.75 30 25 30C22.25 30 20 27.75 20 25C20 22.25 22.25 20 25 20C27.75 20 30 22.25 30 25ZM25 45C14.8 45 6.375 37.375 5.15 27.5H15.3C16.4 31.825 20.325 35 24.975 35C29.625 35 33.55 31.825 34.65 27.5H44.8C43.625 37.375 35.2 45 25 45Z" fill="#404040"/>
<path d="M73.944 18.96C74.36 19.808 74.568 20.752 74.568 21.792C74.568 22.832 74.36 23.776 73.944 24.624C73.528 25.456 72.992 26.12 72.336 26.616C71.008 27.64 69.632 28.152 68.208 28.152H65.208V30.864C65.208 31.232 65.192 31.512 65.16 31.704C65.144 31.88 65.072 32.088 64.944 32.328C64.72 32.76 64.096 32.976 63.072 32.976C61.952 32.976 61.296 32.68 61.104 32.088C61.008 31.816 60.96 31.4 60.96 30.84V17.52C60.96 17.152 60.968 16.88 60.984 16.704C61.016 16.512 61.096 16.296 61.224 16.056C61.448 15.624 62.072 15.408 63.096 15.408H68.232C69.64 15.408 71.008 15.92 72.336 16.944C72.992 17.44 73.528 18.112 73.944 18.96ZM68.232 23.904C68.712 23.904 69.184 23.728 69.648 23.376C70.112 23.024 70.344 22.496 70.344 21.792C70.344 21.088 70.112 20.56 69.648 20.208C69.184 19.84 68.704 19.656 68.208 19.656H65.208V23.904H68.232ZM75.7641 26.688C75.7641 24.768 76.4361 23.184 77.7801 21.936C79.1241 20.688 80.6601 20.064 82.3881 20.064C84.1161 20.064 85.6441 20.688 86.9721 21.936C88.3001 23.168 88.9641 24.744 88.9641 26.664C88.9641 27.992 88.6201 29.176 87.9321 30.216C87.2441 31.24 86.4041 32 85.4121 32.496C84.4361 32.976 83.4201 33.216 82.3641 33.216C81.3081 33.216 80.2841 32.96 79.2921 32.448C78.3001 31.92 77.4601 31.152 76.7721 30.144C76.1001 29.12 75.7641 27.968 75.7641 26.688ZM80.7801 28.416C81.2921 28.8 81.8121 28.992 82.3401 28.992C82.8681 28.992 83.3961 28.792 83.9241 28.392C84.4521 27.992 84.7161 27.4 84.7161 26.616C84.7161 25.832 84.4681 25.248 83.9721 24.864C83.4761 24.48 82.9401 24.288 82.3641 24.288C81.7881 24.288 81.2521 24.488 80.7561 24.888C80.2601 25.288 80.0121 25.88 80.0121 26.664C80.0121 27.432 80.2681 28.016 80.7801 28.416ZM97.9547 26.664L101.147 29.304C101.547 29.64 101.795 29.896 101.891 30.072C102.003 30.248 102.059 30.416 102.059 30.576C102.059 30.96 101.811 31.48 101.315 32.136C100.771 32.808 100.291 33.144 99.8747 33.144C99.5227 33.144 99.0347 32.912 98.4107 32.448L98.1707 32.28C97.8027 31.976 97.2347 31.448 96.4667 30.696C95.6987 29.928 95.1147 29.384 94.7147 29.064V30.912C94.7147 31.28 94.6987 31.56 94.6667 31.752C94.6507 31.928 94.5787 32.136 94.4507 32.376C94.2427 32.792 93.6267 33 92.6027 33C91.5947 33 90.9787 32.784 90.7547 32.352C90.6427 32.112 90.5707 31.904 90.5387 31.728C90.5227 31.536 90.5147 31.256 90.5147 30.888V16.512C90.5147 16.144 90.5227 15.872 90.5387 15.696C90.5707 15.504 90.6427 15.288 90.7547 15.048C90.9787 14.616 91.6027 14.4 92.6267 14.4C93.3947 14.4 93.9387 14.536 94.2587 14.808C94.5307 15.032 94.6747 15.384 94.6907 15.864C94.7067 16.008 94.7147 16.232 94.7147 16.536V24.144C95.0027 23.904 95.4347 23.496 96.0107 22.92C96.6027 22.344 97.0427 21.936 97.3307 21.696L97.6187 21.504C98.1787 21.072 98.6587 20.856 99.0587 20.856C99.4587 20.856 99.9147 21.184 100.427 21.84C100.955 22.48 101.219 22.984 101.219 23.352C101.219 23.72 100.923 24.152 100.331 24.648L97.9547 26.664ZM107.839 19.176C107.615 19.288 107.375 19.344 107.119 19.344C106.639 19.344 106.247 18.872 105.943 17.928C105.815 17.544 105.751 17.216 105.751 16.944C105.751 16.672 105.807 16.464 105.919 16.32C106.063 16.112 106.351 15.944 106.783 15.816L110.743 14.592C111.159 14.48 111.399 14.424 111.463 14.424C111.943 14.424 112.327 14.896 112.615 15.84C112.743 16.224 112.807 16.552 112.807 16.824C112.807 17.08 112.751 17.28 112.639 17.424C112.495 17.632 112.207 17.8 111.775 17.928L107.839 19.176ZM114.847 25.176C114.847 26.152 114.599 26.88 114.103 27.36C113.623 27.824 113.087 28.056 112.495 28.056H106.807C106.807 28.504 107.071 28.88 107.599 29.184C108.127 29.488 108.655 29.64 109.183 29.64C110.111 29.64 110.839 29.544 111.367 29.352L111.631 29.256C112.015 29.08 112.335 28.992 112.591 28.992C113.103 28.992 113.543 29.352 113.911 30.072C114.119 30.504 114.223 30.872 114.223 31.176C114.223 32.6 112.519 33.312 109.111 33.312C107.927 33.312 106.871 33.112 105.943 32.712C105.031 32.296 104.319 31.752 103.807 31.08C102.799 29.784 102.295 28.336 102.295 26.736C102.295 24.72 102.943 23.112 104.239 21.912C105.551 20.696 107.183 20.088 109.135 20.088C111.359 20.088 112.991 20.872 114.031 22.44C114.575 23.272 114.847 24.184 114.847 25.176ZM109.783 25.872C110.391 25.872 110.695 25.616 110.695 25.104C110.695 24.736 110.551 24.44 110.263 24.216C109.991 23.992 109.591 23.88 109.063 23.88C108.551 23.88 108.039 24.096 107.527 24.528C107.015 24.944 106.759 25.392 106.759 25.872H109.783ZM124.885 15.096C125.013 14.856 125.229 14.688 125.533 14.592C125.837 14.496 126.237 14.448 126.733 14.448C127.245 14.448 127.653 14.496 127.957 14.592C128.261 14.688 128.469 14.856 128.581 15.096C128.709 15.336 128.781 15.552 128.797 15.744C128.829 15.92 128.845 16.192 128.845 16.56V30.888C128.845 31.256 128.829 31.536 128.797 31.728C128.781 31.904 128.709 32.104 128.581 32.328C128.341 32.76 127.661 32.976 126.541 32.976C125.437 32.976 124.821 32.584 124.693 31.8C124.021 32.568 123.085 32.952 121.885 32.952C120.445 32.952 119.133 32.328 117.949 31.08C116.765 29.816 116.173 28.352 116.173 26.688C116.173 25.008 116.765 23.536 117.949 22.272C119.149 21.008 120.461 20.376 121.885 20.376C123.069 20.376 123.989 20.776 124.645 21.576V16.536C124.645 16.168 124.653 15.896 124.669 15.72C124.701 15.528 124.773 15.32 124.885 15.096ZM120.997 28.128C121.413 28.56 121.917 28.776 122.509 28.776C123.101 28.776 123.589 28.56 123.973 28.128C124.373 27.696 124.573 27.224 124.573 26.712C124.573 26.184 124.381 25.696 123.997 25.248C123.629 24.8 123.125 24.576 122.485 24.576C121.845 24.576 121.333 24.8 120.949 25.248C120.565 25.68 120.373 26.16 120.373 26.688C120.373 27.216 120.581 27.696 120.997 28.128ZM142.949 25.176C142.949 26.152 142.701 26.88 142.205 27.36C141.725 27.824 141.189 28.056 140.597 28.056H134.909C134.909 28.504 135.173 28.88 135.701 29.184C136.229 29.488 136.757 29.64 137.285 29.64C138.213 29.64 138.941 29.544 139.469 29.352L139.733 29.256C140.117 29.08 140.437 28.992 140.693 28.992C141.205 28.992 141.645 29.352 142.013 30.072C142.221 30.504 142.325 30.872 142.325 31.176C142.325 32.6 140.621 33.312 137.213 33.312C136.029 33.312 134.973 33.112 134.045 32.712C133.133 32.296 132.421 31.752 131.909 31.08C130.901 29.784 130.397 28.336 130.397 26.736C130.397 24.72 131.045 23.112 132.341 21.912C133.653 20.696 135.285 20.088 137.237 20.088C139.461 20.088 141.093 20.872 142.133 22.44C142.677 23.272 142.949 24.184 142.949 25.176ZM137.885 25.872C138.493 25.872 138.797 25.616 138.797 25.104C138.797 24.736 138.653 24.44 138.365 24.216C138.093 23.992 137.693 23.88 137.165 23.88C136.653 23.88 136.141 24.096 135.629 24.528C135.117 24.944 134.861 25.392 134.861 25.872H137.885ZM153.275 26.664L155.939 29.352C156.515 29.928 156.803 30.424 156.803 30.84C156.803 31.24 156.515 31.728 155.939 32.304C155.363 32.864 154.875 33.144 154.475 33.144C154.075 33.144 153.587 32.856 153.011 32.28L150.371 29.616L147.707 32.28C147.131 32.856 146.643 33.144 146.243 33.144C145.859 33.144 145.371 32.864 144.779 32.304C144.203 31.728 143.915 31.24 143.915 30.84C143.915 30.424 144.203 29.928 144.779 29.352L147.443 26.664L144.779 23.976C144.203 23.4 143.915 22.912 143.915 22.512C143.915 22.096 144.203 21.6 144.779 21.024C145.371 20.448 145.859 20.16 146.243 20.16C146.643 20.16 147.131 20.448 147.707 21.024L150.371 23.712L153.011 21.024C153.587 20.448 154.075 20.16 154.475 20.16C154.875 20.16 155.363 20.448 155.939 21.024C156.515 21.6 156.803 22.096 156.803 22.512C156.803 22.912 156.515 23.4 155.939 23.976L153.275 26.664Z" fill="#404040"/>
</svg>
