<svg
  width="50"
  height="50"
  viewBox="0 0 50 50"
  fill="none"
  xmlns="http://www.w3.org/2000/svg"
>
  <path
    d="M8.33331 12.5C8.33331 11.9475 8.55281 11.4176 8.94351 11.0269C9.33421 10.6362 9.86411 10.4167 10.4166 10.4167H39.5833C40.1358 10.4167 40.6658 10.6362 41.0565 11.0269C41.4472 11.4176 41.6666 11.9475 41.6666 12.5C41.6666 13.0525 41.4472 13.5824 41.0565 13.9731C40.6658 14.3638 40.1358 14.5833 39.5833 14.5833H10.4166C9.86411 14.5833 9.33421 14.3638 8.94351 13.9731C8.55281 13.5824 8.33331 13.0525 8.33331 12.5ZM8.33331 37.5C8.33331 36.9475 8.55281 36.4176 8.94351 36.0269C9.33421 35.6362 9.86411 35.4167 10.4166 35.4167H39.5833C40.1358 35.4167 40.6658 35.6362 41.0565 36.0269C41.4472 36.4176 41.6666 36.9475 41.6666 37.5C41.6666 38.0525 41.4472 38.5824 41.0565 38.9731C40.6658 39.3638 40.1358 39.5833 39.5833 39.5833H10.4166C9.86411 39.5833 9.33421 39.3638 8.94351 38.9731C8.55281 38.5824 8.33331 38.0525 8.33331 37.5ZM22.9166 22.9167C22.3641 22.9167 21.8342 23.1362 21.4435 23.5269C21.0528 23.9176 20.8333 24.4475 20.8333 25C20.8333 25.5525 21.0528 26.0824 21.4435 26.4731C21.8342 26.8638 22.3641 27.0833 22.9166 27.0833H39.5833C40.1358 27.0833 40.6658 26.8638 41.0565 26.4731C41.4472 26.0824 41.6666 25.5525 41.6666 25C41.6666 24.4475 41.4472 23.9176 41.0565 23.5269C40.6658 23.1362 40.1358 22.9167 39.5833 22.9167H22.9166Z"
    fill="#303030"
  />
</svg>